<?xml version="1.0" encoding="UTF-8" standalone="no"?><!DOCTYPE svg PUBLIC "-//W3C//DTD SVG 1.1//EN" "http://www.w3.org/Graphics/SVG/1.1/DTD/svg11.dtd"><svg width="100%" height="100%" viewBox="0 0 1024 1024" version="1.1" xmlns="http://www.w3.org/2000/svg" xmlns:xlink="http://www.w3.org/1999/xlink" xml:space="preserve" xmlns:serif="http://www.serif.com/" style="fill-rule:evenodd;clip-rule:evenodd;stroke-linejoin:round;stroke-miterlimit:2;"><path d="M358.062,908.701c7.108,11.255 3.745,26.144 -7.523,33.26c-11.255,7.108 -26.144,3.745 -33.252,-7.51c-7.117,-11.27 -3.755,-26.159 7.501,-33.267c11.269,-7.116 26.157,-3.754 33.275,7.516Zm-169.142,-338.2c-2.959,-8.279 -8.093,-18.204 -29.32,-23.22c-20.205,-4.786 -48.257,-8.004 -58.129,-0.195c-0.75,0.594 -0.683,1.766 0.106,2.315l39.721,27.817c2.505,1.746 3.977,4.618 3.94,7.671l-0.058,5.239c-0.016,1.8 -0.567,3.557 -1.569,5.051l-49.714,73.917c-1.65,2.455 -0.544,5.814 2.248,6.803l17.767,6.299c0,0 34.723,15.682 41.922,20.538c7.205,4.852 13.723,8.629 26.63,29.068c12.198,19.316 112.5,189.081 123.424,207.591c0.31,0.55 0.626,1.094 0.972,1.641c10.717,16.969 33.263,22.059 50.248,11.333c16.985,-10.727 22.073,-33.268 11.356,-50.237c-0.336,-0.533 -0.686,-1.057 -1.039,-1.558c-0.182,-0.245 -0.364,-0.489 -0.546,-0.734c-0.148,-0.19 -0.289,-0.384 -0.435,-0.573l-0.064,-0.087c-0.082,-0.129 -0.177,-0.251 -0.276,-0.349c-0.233,-0.296 -0.459,-0.596 -0.719,-0.875c-0.211,-0.246 -0.421,-0.491 -0.652,-0.725c-0.06,-0.065 -0.115,-0.138 -0.174,-0.203c-22.565,-29.48 -135.566,-177.233 -143.132,-188.703c-8.415,-12.726 -20.299,-17.261 -23.761,-56.086c-3.447,-38.816 -5.773,-73.447 -8.748,-81.736Z" style="fill:#258def;fill-rule:nonzero;"/><path d="M120.057,621.822l-44.257,-33.539c-0.711,-0.557 -1.731,-0.317 -2.176,0.468c-10.759,18.935 15.604,51.816 25.947,63.564l20.486,-30.493Z" style="fill:#258def;fill-rule:nonzero;"/></svg>