<?xml version="1.0" encoding="UTF-8" standalone="no"?><!DOCTYPE svg PUBLIC "-//W3C//DTD SVG 1.1//EN" "http://www.w3.org/Graphics/SVG/1.1/DTD/svg11.dtd"><svg width="100%" height="100%" viewBox="0 0 1024 1024" version="1.1" xmlns="http://www.w3.org/2000/svg" xmlns:xlink="http://www.w3.org/1999/xlink" xml:space="preserve" xmlns:serif="http://www.serif.com/" style="fill-rule:evenodd;clip-rule:evenodd;stroke-linejoin:round;stroke-miterlimit:2;"><path d="M234.567,868.76c0,0 6.773,24.596 26.21,24.789c17.429,-0.174 24.676,-19.969 25.986,-24.056c0.151,-0.471 0.223,-0.733 0.223,-0.733l-0.446,0c0,0 0.072,0.262 0.223,0.733c1.311,4.087 8.557,23.882 25.986,24.056c19.437,-0.194 26.21,-24.789 26.21,-24.789l0.397,0c0,0 6.773,24.596 26.21,24.789c19.437,-0.194 26.21,-24.789 26.21,-24.789l0.059,0c0,0 6.773,24.596 26.21,24.789c17.429,-0.174 24.676,-19.969 25.986,-24.056c0.151,-0.471 0.223,-0.733 0.223,-0.733l-0.446,0c0,0 0.072,0.262 0.223,0.733c1.311,4.087 8.557,23.882 25.986,24.056c19.437,-0.194 26.21,-24.789 26.21,-24.789l0.397,0c0,0 6.773,24.596 26.21,24.789c19.437,-0.194 26.21,-24.789 26.21,-24.789l1.191,0c0,0 6.773,24.596 26.21,24.789c19.437,-0.194 26.21,-24.789 26.21,-24.789l0.397,0c0,0 6.773,24.596 26.21,24.789c19.437,-0.194 26.21,-24.789 26.21,-24.789l-0.569,0c0,0 -0.677,-480.514 0,-540.924c0.512,-45.68 27.789,-53.466 41.061,-54.547c4.279,-0.336 7.103,0 7.103,0l-429.089,0l0.273,0c-13.272,1.081 -40.549,8.867 -41.061,54.547c-0.677,60.41 0,540.924 0,540.924l1.381,0Z" style="fill:url(#_Radial1);fill-rule:nonzero;"/><defs><radialGradient id="_Radial1" cx="0" cy="0" r="1" gradientUnits="userSpaceOnUse" gradientTransform="matrix(-292.262486,531.983401,-531.983401,-292.262486,626.884067,307.826535)"><stop offset="0" style="stop-color:#fff;stop-opacity:1"/><stop offset="0.15" style="stop-color:#d1e1ff;stop-opacity:1"/><stop offset="0.26" style="stop-color:#bcd4ff;stop-opacity:1"/><stop offset="0.56" style="stop-color:#89b9ff;stop-opacity:1"/><stop offset="0.74" style="stop-color:#63a9ff;stop-opacity:1"/><stop offset="1" style="stop-color:#0097ff;stop-opacity:1"/></radialGradient></defs></svg>